<?xml version="1.0" encoding="UTF-8"?>
<svg width="64" height="64" viewBox="0 0 64 64" fill="none" xmlns="http://www.w3.org/2000/svg">
  <!-- true transparent background -->
  <g stroke="#2F7F91" stroke-width="3.8" stroke-linecap="round" stroke-linejoin="round">

    <path d="M8 35c8-13 21-19 33-14 6 2 10 7 13 12-5 7-12 11-20 11-11 0-19-4-26-9z"/>
    <path d="M51 33l7-6v12l-7-6z"/>
    <circle cx="23" cy="32" r="2" fill="#2F7F91" stroke="none"/>
    <path d="M30 26c-3 5-3 9 0 13"/>
    <path d="M12 45c9 6 22 6 31 0"/>
    <g stroke="#73C7B7">
      <path d="M13 53c8 3 17 3 25 0"/>
      <path d="M45 16c4 1 7 4 10 7"/>
    </g>

  </g>
</svg>
